<!DOCTYPE svg PUBLIC "-//W3C//DTD SVG 1.1//EN" "http://www.w3.org/Graphics/SVG/1.1/DTD/svg11.dtd">
<!-- Uploaded to: SVG Repo, www.svgrepo.com, Transformed by: SVG Repo Mixer Tools -->
<svg width="89px" height="89px" viewBox="0 0 320 320" fill="none" xmlns="http://www.w3.org/2000/svg">
<g id="SVGRepo_bgCarrier" stroke-width="0"/>
<g id="SVGRepo_tracerCarrier" stroke-linecap="round" stroke-linejoin="round"/>
<g id="SVGRepo_iconCarrier"> <path fill-rule="evenodd" clip-rule="evenodd" d="M78.025 62.5048C51.1962 71.2366 31.0627 91.3112 31.0021 119.518C30.9762 131.565 34.246 140.83 40.1204 147.722C49.65 121.393 94.0445 92.8777 140.389 76.8879C139.665 75.9067 138.888 74.9462 138.057 74.0074C127.868 62.4923 102.671 54.4834 78.025 62.5048ZM147.789 95.3208C102.86 110.167 65.3194 138.593 56.1278 158.883C63.133 161.747 71.3681 163.402 80.5275 164.028C110.392 166.069 133.721 150.602 144.06 122.519C147.564 113.002 148.912 103.794 147.789 95.3208ZM179.092 142.893C179.727 136.37 182.317 129.364 190.082 121.518C203.851 107.607 221.176 98.3369 238.359 99.3696C235.605 103.082 232.156 106.844 228.13 110.598C214.332 121.906 206.938 127.026 194.113 134.867C189.289 137.637 184.262 140.322 179.092 142.893ZM171.199 180.875C172.896 181.419 174.495 181.566 175.603 181.333C178.605 180.701 182.589 170.33 181.359 167.329C214.569 152.319 241.815 130.64 256.893 105.242C256.95 105.146 256.99 105.042 257.011 104.935C257.884 105.427 258.753 105.953 259.618 106.515C276.837 117.702 282.983 133.513 282.129 154.026C281.13 178.031 265.122 195.035 245.612 212.539C221.938 233.779 210.381 243.116 179.577 251.048C161.108 255.804 147.062 255.549 134.555 247.047C133.982 246.658 133.42 246.252 132.869 245.83C133.138 245.021 132.906 243.849 132.27 243.432C128.599 241.021 126.662 236.108 125.157 231.621C124.839 230.671 123.41 230.7 123.065 231.641C122.945 231.967 122.819 232.294 122.687 232.622C119.862 225.331 119.976 216.358 125.05 206.038C126.92 202.235 129.24 199.489 131.878 197.427C128.97 200.999 128.407 206.392 130.58 210.84C132.829 215.441 140.936 216.252 145.092 216.357C145.995 216.38 146.532 217.534 145.966 218.237C143.364 221.475 138.684 228.215 140.085 233.345C141.65 239.075 145.289 242.566 151.091 243.847C161.567 246.161 166.098 220.842 166.098 220.842L215.123 202.838C215.123 202.838 225.569 211.396 232.132 208.839C239.137 206.11 242.847 198.346 240.136 191.335C238.403 186.853 231.565 184.783 227.252 183.906C226.253 183.703 225.981 182.106 226.856 181.584C230.9 179.172 237.287 174.529 237.135 169.33C236.97 163.699 234.477 159.106 229.131 157.327C223.554 155.472 219.311 158.706 215.123 162.828C210.282 167.596 209.621 179.332 209.621 179.332L149.59 198.337C149.59 198.337 142.992 193.593 137.934 193.934C141.471 192.438 145.314 191.517 149.249 190.574C156.721 188.783 164.526 186.913 171.199 180.875ZM241.848 150.545C245.355 147.465 247.982 142.999 249.547 138.735C249.893 137.794 251.322 137.765 251.641 138.715C253.145 143.201 255.082 148.113 258.753 150.524C259.629 151.099 259.738 153.107 258.828 153.625C253.139 156.862 252.457 161.293 252.214 166.63C252.167 167.658 251.034 167.859 250.679 166.893C249.018 162.382 246.326 155.443 242.137 152.826C241.399 152.365 241.194 151.119 241.848 150.545Z" fill="#72b0b1"/> <path d="M39.0333 151.326C51.0406 101.314 196.615 40.8004 244.138 73.3078M39.0333 151.326L53.8147 187.776C53.9539 188.12 54.2713 188.358 54.6398 188.395C91.8093 192.1 129.951 186.607 163.597 174.514M39.0333 151.326C41.8257 158.189 47.0402 163.036 54.0409 166.17M244.138 73.3078C244.376 73.8156 244.587 74.3284 244.773 74.8459M244.138 73.3078L244.773 74.8459M54.0409 166.17C57.0425 133.822 161.596 65.8061 243.473 90.8118M54.0409 166.17C84.4131 179.765 148.407 161.11 194.113 134.867C206.938 127.025 214.332 121.906 228.13 110.598C235.291 103.92 240.626 97.2191 243.473 90.8118M243.473 90.8118C245.969 85.1937 246.551 79.801 244.773 74.8459M163.597 174.514C166.005 179.809 172.602 181.964 175.603 181.333C178.605 180.701 182.589 170.33 181.359 167.329M163.597 174.514C160.288 169.185 163.93 160.961 170.1 159.828C175.297 158.873 179.105 161.828 181.359 167.329M181.359 167.329C214.569 152.319 241.815 130.64 256.893 105.242C257.053 104.973 257.075 104.645 256.955 104.356L244.773 74.8459M169.1 208.839C169.1 208.839 170.202 201.685 173.602 201.337C176.638 201.027 176.554 206.395 179.605 206.338C183.398 206.268 181.329 198.011 185.108 198.337C187.727 198.562 187.489 202.643 190.111 202.838C193.953 203.123 191.3 194.892 195.113 194.336C197.626 193.969 201.116 196.836 201.116 196.836M246.139 103.315L246.639 108.316M242.137 113.817L238.135 118.318M192.612 77.8087L200.116 76.8085M205.118 72.3075L213.122 72.3075M62.5453 181.333L67.5478 181.333M77.553 181.333L82.0553 181.333M264.148 159.828L265.149 170.83M259.646 166.893L270.652 161.328M149.59 198.337C149.59 198.337 141.194 192.3 136.083 194.336C129.77 196.85 127.597 204.735 130.58 210.839C132.829 215.441 140.936 216.252 145.092 216.357C145.995 216.38 146.532 217.533 145.966 218.237C143.363 221.475 138.684 228.215 140.085 233.345C141.65 239.075 145.289 242.566 151.091 243.847C161.567 246.161 166.098 220.842 166.098 220.842L215.123 202.838C215.123 202.838 225.569 211.396 232.132 208.839C239.137 206.11 242.847 198.346 240.136 191.335C238.403 186.853 231.565 184.783 227.252 183.906C226.253 183.703 225.981 182.106 226.856 181.584C230.9 179.172 237.287 174.529 237.135 169.33C236.97 163.699 234.477 159.106 229.13 157.327C223.554 155.472 219.31 158.705 215.123 162.828C210.282 167.596 209.62 179.332 209.62 179.332L149.59 198.337ZM249.547 138.735C247.982 142.999 245.354 147.465 241.848 150.545C241.194 151.119 241.399 152.365 242.137 152.826C246.326 155.443 249.018 162.382 250.679 166.893C251.034 167.859 252.167 167.658 252.214 166.63C252.457 161.293 253.139 156.862 258.828 153.625C259.738 153.107 259.629 151.099 258.753 150.524C255.082 148.113 253.145 143.201 251.641 138.715C251.322 137.765 249.893 137.794 249.547 138.735ZM132.345 246.532C126.655 249.769 125.973 254.201 125.73 259.54C125.684 260.567 124.551 260.768 124.196 259.802C122.535 255.291 119.843 248.35 115.653 245.733C114.915 245.272 114.711 244.027 115.364 243.453C118.871 240.372 121.499 235.906 123.065 231.641C123.41 230.7 124.838 230.671 125.157 231.621C126.662 236.108 128.599 241.021 132.27 243.432C133.146 244.006 133.256 246.014 132.345 246.532Z" stroke="#000000" stroke-width="5" stroke-linecap="round"/> </g>
</svg>