<svg width="1440" height="491" viewBox="0 0 1440 491" fill="none" xmlns="http://www.w3.org/2000/svg">
<mask id="path-1-inside-1_3_16" fill="white">
<path fill-rule="evenodd" clip-rule="evenodd" d="M120 21.3L0 0V224V384L80 394.7C118.819 399.698 176.474 407.451 243.825 416.507C315.275 426.115 397.637 437.19 480 448C486.867 448.901 493.734 449.804 500.601 450.708C653.734 470.847 806.867 490.987 960 490.7C1111.02 490.983 1262.04 471.399 1345.79 460.538C1350.77 459.893 1355.51 459.278 1360 458.7L1440 448V224V0L1320 21.3C1200 43 960 85 720 85.3C480 85 240 43 120 21.3Z"/>
</mask>
<path fill-rule="evenodd" clip-rule="evenodd" d="M120 21.3L0 0V224V384L80 394.7C118.819 399.698 176.474 407.451 243.825 416.507C315.275 426.115 397.637 437.19 480 448C486.867 448.901 493.734 449.804 500.601 450.708C653.734 470.847 806.867 490.987 960 490.7C1111.02 490.983 1262.04 471.399 1345.79 460.538C1350.77 459.893 1355.51 459.278 1360 458.7L1440 448V224V0L1320 21.3C1200 43 960 85 720 85.3C480 85 240 43 120 21.3Z" fill="#FFC796"/>
<path d="M0 0L0.174768 -0.98461L-1 -1.19313V0H0ZM120 21.3L120.178 20.316L120.175 20.3154L120 21.3ZM0 384H-1V384.875L-0.13257 384.991L0 384ZM80 394.7L79.8674 395.691L79.8723 395.692L80 394.7ZM243.825 416.507L243.958 415.516L243.958 415.516L243.825 416.507ZM480 448L479.87 448.991L479.87 448.991L480 448ZM500.601 450.708L500.47 451.699L500.47 451.699L500.601 450.708ZM960 490.7L960.002 489.7L959.998 489.7L960 490.7ZM1345.79 460.538L1345.92 461.53L1345.92 461.53L1345.79 460.538ZM1360 458.7L1360.13 459.692L1360.13 459.691L1360 458.7ZM1440 448L1440.13 448.991L1441 448.875V448H1440ZM1440 0H1441V-1.19313L1439.83 -0.98461L1440 0ZM1320 21.3L1319.83 20.3154L1319.82 20.316L1320 21.3ZM720 85.3L719.999 86.3L720.001 86.3L720 85.3ZM-0.174768 0.98461L119.825 22.2846L120.175 20.3154L0.174768 -0.98461L-0.174768 0.98461ZM1 224V0H-1V224H1ZM-1 224V384H1V224H-1ZM-0.13257 384.991L79.8674 395.691L80.1326 393.709L0.13257 383.009L-0.13257 384.991ZM79.8723 395.692C118.688 400.689 176.339 408.441 243.691 417.498L243.958 415.516C176.608 406.46 118.95 398.707 80.1277 393.708L79.8723 395.692ZM243.691 417.498C315.141 427.106 397.505 438.181 479.87 448.991L480.13 447.009C397.769 436.199 315.408 425.124 243.958 415.516L243.691 417.498ZM479.87 448.991C486.737 449.893 493.603 450.796 500.47 451.699L500.731 449.716C493.864 448.813 486.997 447.91 480.13 447.009L479.87 448.991ZM500.47 451.699C653.592 471.837 806.791 491.987 960.002 491.7L959.998 489.7C806.943 489.987 653.876 469.857 500.731 449.716L500.47 451.699ZM959.998 491.7C1111.09 491.983 1262.18 472.39 1345.92 461.53L1345.66 459.547C1261.91 470.407 1110.95 489.983 960.002 489.7L959.998 491.7ZM1345.92 461.53C1350.9 460.884 1355.64 460.27 1360.13 459.692L1359.87 457.708C1355.38 458.286 1350.64 458.901 1345.66 459.547L1345.92 461.53ZM1360.13 459.691L1440.13 448.991L1439.87 447.009L1359.87 457.709L1360.13 459.691ZM1441 448V224H1439V448H1441ZM1439 0V224H1441V0H1439ZM1320.17 22.2846L1440.17 0.98461L1439.83 -0.98461L1319.83 20.3154L1320.17 22.2846ZM720.001 86.3C960.099 85.9999 1200.18 43.9845 1320.18 22.284L1319.82 20.316C1199.82 42.0155 959.901 84.0001 719.999 84.3L720.001 86.3ZM119.822 22.284C239.824 43.9845 479.901 85.9999 719.999 86.3L720.001 84.3C480.099 84.0001 240.176 42.0155 120.178 20.316L119.822 22.284Z" fill="#FFC796" mask="url(#path-1-inside-1_3_16)"/>
</svg>
