<svg width="869" height="266" viewBox="0 0 869 266" fill="none" xmlns="http://www.w3.org/2000/svg">
<path fill-rule="evenodd" clip-rule="evenodd" d="M28.9667 79.6664L0 90.9168V113.418H28.9667H173.8H347.6H521.4H695.2H840.033H869L840.033 102.167C811.067 90.9168 753.133 68.416 695.2 64.6893C670.886 63.0071 646.571 64.7559 622.257 66.5046C588.638 68.9224 555.019 71.3403 521.4 64.6893C492.433 59.1695 463.467 46.9171 434.5 34.6648C405.533 22.4124 376.567 10.16 347.6 4.64026C289.667 -6.82109 231.733 8.64822 173.8 27.1411C115.867 45.9151 57.9336 68.4159 28.9668 79.6663L28.9667 79.6664ZM48.2778 216.173L0 198.438V113.418H48.2778H289.667H579.333H820.722H869V219.693L820.722 240.688C819.266 240.482 817.766 240.269 816.224 240.049C766.62 232.992 672.977 219.669 579.333 233.648C577.08 233.978 574.826 234.308 572.573 234.639C478.271 248.462 383.969 262.286 289.667 265.724C195.276 269.425 100.886 235.231 51.5976 217.375C50.4671 216.966 49.3603 216.565 48.2778 216.173Z" fill="#F4A460"/>
</svg>
